HIERARCHY
ROOT Hips
{
	OFFSET -3.958830 18.904000 13.208200
	CHANNELS 6 Xposition Yposition Zposition Zrotation Yrotation Xrotation 
	JOINT LHipJoint
	{
		OFFSET 0.000000 0.000000 0.000000
		CHANNELS 3 Zrotation Yrotation Xrotation
		JOINT LeftUpLeg
		{
			OFFSET 1.800000 -1.400000 0.085000
			CHANNELS 3 Zrotation Yrotation Xrotation
			JOINT LeftLeg
			{
				OFFSET 2.215000 -6.000000 0.000000
				CHANNELS 3 Zrotation Yrotation Xrotation
				JOINT LeftFoot
				{
					OFFSET 2.500000 -6.900000 0.000000
					CHANNELS 3 Zrotation Yrotation Xrotation
					JOINT LeftToeBase
					{
						OFFSET 0.200000 -0.500000 1.950000
						CHANNELS 3 Zrotation Yrotation Xrotation
						End Site
						{
							OFFSET 0.000000 0.000000 0.000000
						}
					}
				}
			}
		}
	}
	JOINT RHipJoint
	{
		OFFSET 0.000000 0.000000 0.000000
		CHANNELS 3 Zrotation Yrotation Xrotation
		JOINT RightUpLeg
		{
			OFFSET -1.800000 -1.400000 0.085000
			CHANNELS 3 Zrotation Yrotation Xrotation
			JOINT RightLeg
			{
				OFFSET -2.215000 -6.000000 0.000000
				CHANNELS 3 Zrotation Yrotation Xrotation
				JOINT RightFoot
				{
					OFFSET -2.500000 -6.900000 0.000000
					CHANNELS 3 Zrotation Yrotation Xrotation
					JOINT RightToeBase
					{
						OFFSET -0.200000 -0.500000 1.950000
						CHANNELS 3 Zrotation Yrotation Xrotation
						End Site
						{
							OFFSET 0.000000 0.000000 0.000000
						}
					}
				}
			}
		}
	}
	JOINT LowerBack
	{
		OFFSET 0.000000 0.000000 0.000000
		CHANNELS 3 Zrotation Yrotation Xrotation
		JOINT Spine
		{
			OFFSET -0.087000 1.940000 -0.288900
			CHANNELS 3 Zrotation Yrotation Xrotation
			JOINT Spine1
			{
				OFFSET 0.000000 1.950000 0.060000
				CHANNELS 3 Zrotation Yrotation Xrotation
				JOINT Neck
				{
					OFFSET 0.000000 0.000000 0.000000
					CHANNELS 3 Zrotation Yrotation Xrotation
					JOINT Neck1
					{
						OFFSET 0.000000 1.600000 0.340000
						CHANNELS 3 Zrotation Yrotation Xrotation
						JOINT Head
						{
							OFFSET 0.000000 1.667000 -0.240000
							CHANNELS 3 Zrotation Yrotation Xrotation
							End Site
							{
								OFFSET 0.000000 0.000000 0.000000
							}
						}
					}
				}
				JOINT LeftShoulder
				{
					OFFSET 0.000000 0.000000 0.000000
					CHANNELS 3 Zrotation Yrotation Xrotation
					JOINT LeftArm
					{
						OFFSET 2.700000 1.550000 -0.730000
						CHANNELS 3 Zrotation Yrotation Xrotation
						JOINT LeftForeArm
						{
							OFFSET 5.450000 0.000000 0.000000
							CHANNELS 3 Zrotation Yrotation Xrotation
							JOINT LeftHand
							{
								OFFSET 3.450000 0.000000 0.000000
								CHANNELS 3 Zrotation Yrotation Xrotation
								JOINT LeftHandIndex1
								{
									OFFSET 0.750000 0.000000 0.000000
									CHANNELS 3 Zrotation Yrotation Xrotation
									End Site
									{
										OFFSET 0.000000 0.000000 0.000000
									}
								}
							}
						}
					}
				}
				JOINT RightShoulder
				{
					OFFSET 0.000000 0.000000 0.000000
					CHANNELS 3 Zrotation Yrotation Xrotation
					JOINT RightArm
					{
						OFFSET -2.700000 1.550000 -0.730000
						CHANNELS 3 Zrotation Yrotation Xrotation
						JOINT RightForeArm
						{
							OFFSET -5.450000 0.000000 0.000000
							CHANNELS 3 Zrotation Yrotation Xrotation
							JOINT RightHand
							{
								OFFSET -3.450000 0.000000 0.000000
								CHANNELS 3 Zrotation Yrotation Xrotation
								JOINT RightHandIndex1
								{
									OFFSET -0.750000 0.000000 0.000000
									CHANNELS 3 Zrotation Yrotation Xrotation
									End Site
									{
										OFFSET 0.000000 0.000000 0.000000
									}
								}
							}
						}
					}
				}
			}
		}
	}
}
MOTION
Frames: 6
Frame Time: 0.016667
-0.402480 17.369070 -5.785130 -18.269830 58.245730 -9.434201 -15.624857 12.800749 2.647508 -2.947314 -1.711020 -14.230838 -1.329791 3.974620 15.174750 -1.026682 3.613077 3.463750 0.542350 0.188810 0.454280 17.905819 -10.226552 3.934285 -13.643933 3.791448 -40.462196 12.329023 -7.363699 19.965185 -0.121361 -3.592734 3.018818 0.341970 0.301990 0.321550 -4.699468 -0.520036 -7.747259 24.007224 -3.130353 16.942357 4.619538 -0.762285 4.990914 4.645607 11.448089 -8.602584 21.094168 -18.842797 19.542911 -5.282000 -7.713350 -11.959650 -18.736285 1.018736 3.032449 -29.193945 12.576281 2.309413 -137.128245 -39.212412 75.633735 -3.873413 3.819293 0.515050 0.321960 -0.087120 0.169340 9.535778 -8.717785 2.836950 43.115006 -6.179908 -9.160327 130.247194 56.824667 78.860099 1.783746 -1.957862 -0.299670 0.320120 0.022820 -0.332840 
-0.352450 17.230660 -5.687450 -17.847287 57.359688 -6.933386 -15.582425 12.549557 2.557222 -2.879801 -1.516447 -13.788119 -2.666538 4.149413 13.783975 -1.094671 3.699983 3.452110 0.567530 0.228960 0.435250 18.001114 -10.198093 3.877567 -11.760016 4.166233 -39.630356 9.132767 -3.994007 9.171080 0.076331 -2.383333 3.472053 0.427790 0.379320 0.339810 -4.720851 -0.158808 -7.568478 22.097356 -2.017321 11.866109 5.915345 -1.253576 6.675478 4.651837 11.591289 -8.435074 21.572301 -19.351079 17.788968 -7.093860 -8.281600 -10.013850 -18.247778 1.119602 3.152847 -26.385357 12.708450 4.015602 -139.874619 -38.439704 79.436146 -3.979335 3.885101 0.419730 0.419570 -0.170770 0.186190 9.376782 -9.463879 2.834369 42.900789 -6.660672 -8.172068 137.788425 57.167840 89.516838 1.634972 -2.039945 -0.317790 0.341120 0.042510 -0.320860 
-0.317590 17.103430 -5.601000 -16.050579 57.023121 -4.511832 -15.581465 12.401522 2.498382 -3.568003 -1.338852 -12.949433 -3.494649 4.357919 13.564130 -1.132128 3.872967 3.411020 0.593050 0.256210 0.417890 18.058315 -10.041728 3.872968 -11.174145 4.130091 -38.834035 5.924683 -2.243350 1.941505 0.127897 -2.074000 3.598126 0.495240 0.446540 0.346870 -4.468327 -0.222722 -7.454222 18.608892 -1.262670 8.971483 7.695316 -1.497537 7.675949 4.523295 11.750927 -8.252759 21.882933 -19.790057 17.151908 -7.453470 -9.102750 -9.106360 -17.075340 1.503224 2.918962 -24.148720 11.654940 5.655439 -142.418964 -37.448429 83.047798 -4.034669 3.932080 0.376420 0.475390 -0.228630 0.209400 8.860686 -10.090689 2.877014 42.521149 -6.610598 -6.502473 142.980560 56.080555 95.982923 1.521668 -2.151737 -0.346490 0.379100 0.059440 -0.310930 
-0.277600 16.993050 -5.533650 -14.753166 56.061219 -3.169750 -15.577337 12.305446 2.456330 -4.205122 -0.999545 -11.700145 -3.828521 4.449704 13.019853 -1.133133 3.982071 3.386164 0.569670 0.237910 0.387050 18.102110 -9.936444 3.902824 -10.436528 4.316938 -38.608771 3.755847 -1.523675 -1.712319 0.155697 -2.039436 3.629340 0.509030 0.495310 0.353720 -4.293973 -0.223437 -7.404959 16.391994 -0.804398 7.583817 8.523596 -1.562497 8.387952 4.429007 11.927579 -8.530021 22.367535 -19.950237 16.687005 -8.002670 -9.342710 -8.226350 -16.417214 1.241792 3.234070 -21.935291 11.726827 7.024046 -146.109380 -35.897507 87.598469 -4.107653 3.952968 0.336120 0.524100 -0.272690 0.203230 8.531965 -9.900028 3.138893 42.709439 -6.157745 -5.722048 148.309977 56.330765 104.619526 1.450533 -2.166850 -0.361950 0.394260 0.092010 -0.303690 
-0.233330 16.902810 -5.470310 -13.379685 55.137708 -2.334565 -15.581803 12.289268 2.455349 -4.781286 -0.624573 -10.189446 -3.925311 4.523030 12.537742 -1.103409 4.098013 3.369175 0.513860 0.167770 0.347710 18.115381 -9.882227 3.893267 -10.335083 4.260606 -38.227079 3.323708 -1.362452 -2.932211 0.183660 -2.089968 3.630795 0.479090 0.537640 0.353210 -4.123792 -0.295988 -7.362904 14.457283 -0.454622 6.889761 9.240206 -1.507109 8.941097 4.146720 12.017050 -8.842131 22.487923 -20.114655 16.929766 -8.450580 -9.649920 -6.886680 -16.340094 0.513294 3.647676 -19.927798 11.953722 7.668778 -148.233753 -34.516600 89.401058 -4.164580 3.951522 0.310820 0.558330 -0.315830 0.190950 9.079382 -9.123027 3.432172 42.012917 -6.478582 -5.590489 150.974636 56.120082 108.382399 1.439240 -2.167592 -0.382410 0.397540 0.127270 -0.300180 
-0.181690 16.839890 -5.425910 -12.795325 54.606804 -2.674510 -15.597291 12.405032 2.495445 -5.136718 -0.319671 -8.846117 -3.324519 4.539700 12.976801 -1.077458 4.214551 3.333658 0.458000 0.076770 0.335730 18.081495 -9.947549 3.811121 -10.026178 4.019793 -37.599579 3.511906 -1.586252 -1.808297 0.201781 -2.057632 3.642827 0.420520 0.541610 0.355470 -4.036761 -0.422216 -7.342590 13.840464 -0.603622 7.209790 9.462256 -1.674827 9.257271 3.938314 11.981185 -9.228487 22.258906 -19.920774 17.792483 -8.290460 -9.653970 -6.663980 -15.890204 -0.045859 4.065382 -19.653564 12.461338 7.417047 -148.664459 -34.323447 89.322592 -4.171396 3.919102 0.346920 0.547770 -0.317750 0.163740 9.024933 -8.498335 3.700719 41.295679 -6.830498 -5.691850 150.564043 55.294839 106.470712 1.473198 -2.142517 -0.404160 0.393390 0.162320 -0.316090 
